<?xml version="1.0" encoding="UTF-8" standalone="no"?>
<!-- Created with Inkscape (http://www.inkscape.org/) -->

<svg
   width="1024"
   height="1024"
   viewBox="0 0 1024 1024"
   version="1.1"
   id="svg5"
   inkscape:version="1.4 (86a8ad7, 2024-10-11)"
   sodipodi:docname="icon_compass.svg"
   inkscape:export-filename="icon_compass.png"
   inkscape:export-xdpi="192"
   inkscape:export-ydpi="192"
   xmlns:inkscape="http://www.inkscape.org/namespaces/inkscape"
   xmlns:sodipodi="http://sodipodi.sourceforge.net/DTD/sodipodi-0.dtd"
   xmlns="http://www.w3.org/2000/svg"
   xmlns:svg="http://www.w3.org/2000/svg"
   xmlns:rdf="http://www.w3.org/1999/02/22-rdf-syntax-ns#"
   xmlns:cc="http://creativecommons.org/ns#"
   xmlns:dc="http://purl.org/dc/elements/1.1/">
  <title
     id="title1">Instruments Icon</title>
  <sodipodi:namedview
     id="namedview7"
     pagecolor="#212121"
     bordercolor="#666666"
     borderopacity="1.0"
     inkscape:pageshadow="2"
     inkscape:pageopacity="0.0"
     inkscape:pagecheckerboard="0"
     inkscape:document-units="px"
     showgrid="false"
     inkscape:showpageshadow="false"
     borderlayer="true"
     units="px"
     width="512px"
     showguides="false"
     inkscape:guide-bbox="true"
     inkscape:zoom="0.47206127"
     inkscape:cx="535.94738"
     inkscape:cy="478.75142"
     inkscape:window-width="1920"
     inkscape:window-height="1009"
     inkscape:window-x="-8"
     inkscape:window-y="-8"
     inkscape:window-maximized="1"
     inkscape:current-layer="layer1"
     inkscape:object-paths="true"
     inkscape:deskcolor="#d1d1d1">
    <sodipodi:guide
       position="67.733332,67.733332"
       orientation="-1,0"
       id="guide846"
       inkscape:label=""
       inkscape:locked="false"
       inkscape:color="rgb(0,0,255)" />
    <sodipodi:guide
       position="67.733332,67.733332"
       orientation="0,1"
       id="guide928"
       inkscape:label=""
       inkscape:locked="false"
       inkscape:color="rgb(0,0,255)" />
  </sodipodi:namedview>
  <defs
     id="defs2">
    <inkscape:path-effect
       effect="powermask"
       id="path-effect3259"
       is_visible="true"
       lpeversion="0"
       uri="#mask-powermask-path-effect3259"
       invert="false"
       hide_mask="false"
       background="false"
       background_color="#ffffffff" />
    <mask
       maskUnits="userSpaceOnUse"
       id="mask3255">
      <circle
         style="fill:#ffffff;stroke:none;stroke-width:0.750001;-inkscape-stroke:none;paint-order:markers fill stroke;stop-color:#000000"
         id="circle3257"
         cx="61.572235"
         cy="73.378929"
         r="61.40863"
         transform="rotate(-5)" />
    </mask>
    <filter
       id="mask-powermask-path-effect3259_inverse"
       inkscape:label="filtermask-powermask-path-effect3259"
       style="color-interpolation-filters:sRGB"
       height="100"
       width="100"
       x="-50"
       y="-50">
      <feColorMatrix
         id="mask-powermask-path-effect3259_primitive1"
         values="1"
         type="saturate"
         result="fbSourceGraphic" />
      <feColorMatrix
         id="mask-powermask-path-effect3259_primitive2"
         values="-1 0 0 0 1 0 -1 0 0 1 0 0 -1 0 1 0 0 0 1 0 "
         in="fbSourceGraphic" />
    </filter>
    <mask
       maskUnits="userSpaceOnUse"
       id="mask-powermask-path-effect3259">
      <path
         id="path1"
         style="fill:#ffffff;fill-opacity:1"
         d="M 0.5875035,0.587503 H 134.87916 V 134.87916 H 0.5875035 Z" />
      <path
         id="circle1"
         transform="rotate(-5)"
         d="M 122.98087,73.378929 A 61.40863,61.40863 0 0 1 61.572235,134.78756 61.40863,61.40863 0 0 1 0.16360474,73.378929 61.40863,61.40863 0 0 1 61.572235,11.970299 61.40863,61.40863 0 0 1 122.98087,73.378929 Z"
         style="fill:#ffffff;stroke:none;stroke-width:0.750001;-inkscape-stroke:none;paint-order:markers fill stroke;stop-color:#000000" />
    </mask>
    <filter
       id="mask-powermask-path-effect2_inverse"
       inkscape:label="filtermask-powermask-path-effect2"
       style="color-interpolation-filters:sRGB"
       height="100"
       width="100"
       x="-50"
       y="-50">
      <feColorMatrix
         id="mask-powermask-path-effect2_primitive1"
         values="1"
         type="saturate"
         result="fbSourceGraphic" />
      <feColorMatrix
         id="mask-powermask-path-effect2_primitive2"
         values="-1 0 0 0 1 0 -1 0 0 1 0 0 -1 0 1 0 0 0 1 0 "
         in="fbSourceGraphic" />
    </filter>
  </defs>
  <g
     inkscape:label="Layer 1"
     inkscape:groupmode="layer"
     id="layer1">
    <g
       id="g3095"
       style="display:inline;fill:none;stroke:#ffffff;stroke-width:0.79375"
       transform="matrix(7.5303199,0.65881762,-0.65881762,7.5303199,46.568279,-42.679545)"
       mask="none"
       inkscape:label="marks">
      <path
         id="path2887"
         style="display:inline;fill:#ffffff;stroke:none;stroke-width:1.32292;stroke-dasharray:none"
         d="m 67.072391,1.5880167 v 6.7101847 a 59.500589,59.500589 0 0 1 0.660941,-0.065112 59.500589,59.500589 0 0 1 0.660942,0.065112 V 1.5880167 Z m -10.174056,0.890385 -1.302763,0.2284098 1.164787,6.6068318 a 59.500589,59.500589 0 0 1 1.320333,-0.1302246 z m 21.669995,0 -1.182357,6.705017 a 59.500589,59.500589 0 0 1 1.320333,0.1302246 L 79.871093,2.7068115 Z M 45.732608,5.3495442 44.48824,5.8027465 46.81678,12.199772 a 59.500589,59.500589 0 0 1 1.269173,-0.384989 z m 44.001965,0 -2.353344,6.4657548 a 59.500589,59.500589 0 0 1 1.268656,0.384473 l 2.32854,-6.3970255 z m -54.502099,4.7697348 -1.144633,0.659908 3.439584,5.957259 a 59.500589,59.500589 0 0 1 1.16582,-0.623218 z m 65.001716,0 -3.46077,5.993949 a 59.500589,59.500589 0 0 1 1.16582,0.623218 l 3.43958,-5.957259 z m -74.511729,6.517431 -1.013375,0.851628 4.448307,5.301485 a 59.500589,59.500589 0 0 1 1.023193,-0.839742 z m 84.021739,0 -4.45812,5.313371 a 59.500589,59.500589 0 0 1 1.02319,0.839742 l 4.44831,-5.301485 z m -92.255862,8.072376 -0.851628,1.013375 5.313371,4.458125 a 59.500589,59.500589 0 0 1 0.839742,-1.023193 z m 100.489992,0 -5.30149,4.448307 a 59.500589,59.500589 0 0 1 0.83974,1.023193 l 5.31337,-4.458125 z m -107.199143,9.378755 -0.659908,1.144633 5.993949,3.460771 a 59.500589,59.500589 0 0 1 0.623218,-1.16582 z m 113.908293,0 -5.95726,3.439584 a 59.500589,59.500589 0 0 1 0.62322,1.16582 l 5.99446,-3.460771 z M 5.8027465,44.48824 5.3495442,45.732608 11.814783,48.085953 a 59.500589,59.500589 0 0 1 0.384989,-1.269173 z m 123.8611735,0 -6.39703,2.32854 a 59.500589,59.500589 0 0 1 0.38499,1.269173 l 6.46524,-2.353345 z M 2.7068115,55.595572 l -0.2284098,1.302763 6.705017,1.182357 a 59.500589,59.500589 0 0 1 0.1302246,-1.320333 z m 130.0530385,0 -6.60683,1.164787 a 59.500589,59.500589 0 0 1 0.13023,1.320333 l 6.70501,-1.182357 z M 1.5880167,67.072391 v 1.321883 h 6.7101847 a 59.500589,59.500589 0 0 1 -0.065112,-0.660942 59.500589,59.500589 0 0 1 0.065112,-0.660941 z m 125.5804433,0 a 59.500589,59.500589 0 0 1 0.0651,0.660941 59.500589,59.500589 0 0 1 -0.0651,0.660942 h 6.71071 V 67.072391 Z M 9.1834187,77.385973 2.4784017,78.56833 2.7068115,79.871093 9.3136433,78.706306 A 59.500589,59.500589 0 0 1 9.1834187,77.385973 Z m 117.0998313,0 a 59.500589,59.500589 0 0 1 -0.13023,1.320333 l 6.60683,1.164787 0.22841,-1.302763 z m -114.467951,9.995256 -6.4657548,2.353344 0.4532023,1.243852 6.3970255,-2.32854 a 59.500589,59.500589 0 0 1 -0.384473,-1.268656 z m 111.836071,0 a 59.500589,59.500589 0 0 1 -0.38448,1.268656 l 6.39703,2.32854 0.4532,-1.243852 z m -107.538142,9.392191 -5.993949,3.46077 0.659908,1.14463 5.957259,-3.43958 a 59.500589,59.500589 0 0 1 -0.623218,-1.16582 z m 103.240212,0 a 59.500589,59.500589 0 0 1 -0.62322,1.16582 l 5.95726,3.43958 0.66042,-1.14463 z m -97.403359,8.51266 -5.313371,4.45812 0.851628,1.01338 5.301485,-4.44831 a 59.500589,59.500589 0 0 1 -0.839742,-1.02319 z m 91.566499,0 a 59.500589,59.500589 0 0 1 -0.83974,1.02319 l 5.30149,4.44831 0.85162,-1.01338 z m -84.359187,7.39076 -4.448307,5.30149 1.013375,0.85162 4.458125,-5.31337 a 59.500589,59.500589 0 0 1 -1.023193,-0.83974 z m 77.151877,0 a 59.500589,59.500589 0 0 1 -1.02319,0.83974 l 4.45812,5.31337 1.01338,-0.85162 z m -68.781845,6.05338 -3.439584,5.95726 1.144633,0.66042 3.460771,-5.99446 a 59.500589,59.500589 0 0 1 -1.16582,-0.62322 z m 60.411815,0 a 59.500589,59.500589 0 0 1 -1.16582,0.62322 l 3.46077,5.99446 1.14463,-0.66042 z m -51.12246,4.53667 -2.32854,6.39703 1.244368,0.4532 2.353345,-6.46524 a 59.500589,59.500589 0 0 1 -1.269173,-0.38499 z m 41.833105,0 a 59.500589,59.500589 0 0 1 -1.268656,0.38448 l 2.353344,6.46575 1.243852,-0.4532 z m -31.889526,2.88613 -1.164787,6.60683 1.302763,0.22841 1.182357,-6.70501 a 59.500589,59.500589 0 0 1 -1.320333,-0.13023 z m 21.945947,0 a 59.500589,59.500589 0 0 1 -1.320333,0.13023 l 1.182357,6.70501 1.302763,-0.22841 z m -11.633915,1.01544 v 6.71071 h 1.321883 v -6.71071 a 59.500589,59.500589 0 0 1 -0.660942,0.0651 59.500589,59.500589 0 0 1 -0.660941,-0.0651 z"
         transform="rotate(-5,67.733331,67.733332)" />
      <path
         id="path3059"
         style="fill:#ffffff;stroke:none"
         d="m 56.63851,2.5233749 -0.783105,0.1385424 0.775293,4.396951 a 61.979783,61.979783 0 0 1 0.78187,-0.1467342 z m 10.697545,-0.9353952 -2.43e-4,4.4559831 a 61.979783,61.979783 0 0 1 0.794956,0.00878 l -8e-6,-4.4647797 z m 11.49203,0.9356963 -0.767271,4.3513869 a 61.979783,61.979783 0 0 1 0.77684,0.1633925 L 79.6095,2.6622875 Z m -33.345473,2.9178695 -0.746079,0.2712126 1.520124,4.176684 a 61.979783,61.979783 0 0 1 0.73718,-0.2958522 z m -10.478535,4.8083275 -0.687748,0.398388 2.197299,3.805677 a 61.979783,61.979783 0 0 1 0.666397,-0.434906 z M 89.98411,5.4412997 88.496151,9.529971 a 61.979783,61.979783 0 0 1 0.729645,0.3117309 l 1.502598,-4.1288575 z m -64.464734,11.3652473 -0.607286,0.511696 2.772828,3.304541 a 61.979783,61.979783 0 0 1 0.569636,-0.556644 z m 74.943244,-6.556684 -2.127602,3.685031 a 61.979783,61.979783 0 0 1 0.658202,0.449741 l 2.15735,-3.736395 z m 9.48455,6.557042 -2.70346,3.221861 a 61.979783,61.979783 0 0 1 0.60798,0.510158 l 2.70304,-3.220786 z m -92.629032,8.105028 -0.511747,0.607603 3.222421,2.703933 a 61.979783,61.979783 0 0 1 0.510068,-0.609013 z m -6.669852,9.404681 -0.398423,0.68743 3.685031,2.127603 A 61.979783,61.979783 0 0 1 14.38468,36.47396 Z m 107.500134,-9.404524 -3.30454,2.772828 a 61.979783,61.979783 0 0 1 0.55604,0.568652 l 3.25814,-2.734014 z M 5.7126645,44.736212 5.4412999,45.482555 9.5299712,46.970514 A 61.979783,61.979783 0 0 1 9.8420817,46.23928 Z M 124.8184,34.316328 l -3.80567,2.197299 a 61.979783,61.979783 0 0 1 0.4343,0.665413 l 3.76766,-2.175298 z M 2.6621526,55.85562 2.5236762,56.63858 6.8750631,57.405851 A 61.979783,61.979783 0 0 1 7.0388353,56.627422 Z M 129.75391,44.736533 l -4.17669,1.520123 a 61.979783,61.979783 0 0 1 0.29637,0.737136 l 4.15204,-1.511225 z m 3.05084,11.118872 -4.39695,0.775293 a 61.979783,61.979783 0 0 1 0.14673,0.78187 l 4.38876,-0.774058 z m -131.2167869,11.4805 1.68e-5,0.794705 4.455983,2.43e-4 a 61.979783,61.979783 0 0 1 0.00878,-0.794956 z m 5.3241712,10.718192 -4.3887592,0.774058 0.1388771,0.781001 4.3964361,-0.775248 A 61.979783,61.979783 0 0 1 6.9121343,78.054097 Z M 129.4227,67.335811 a 61.979783,61.979783 0 0 1 -0.009,0.794957 l 4.46478,-8e-6 -1e-5,-0.794705 z m -0.8311,10.725003 a 61.979783,61.979783 0 0 1 -0.16339,0.77684 l 4.37668,0.771801 0.13861,-0.781416 z M 9.5936351,88.473343 5.4415908,89.984568 5.713138,90.728543 9.8887924,89.208509 A 61.979783,61.979783 0 0 1 9.5936351,88.473343 Z m 4.4254419,9.813812 -3.769159,2.175945 0.398343,0.68724 3.805677,-2.197302 A 61.979783,61.979783 0 0 1 14.019077,98.287155 Z M 125.93669,88.496151 a 61.979783,61.979783 0 0 1 -0.31173,0.729645 l 4.12886,1.502598 0.27159,-0.74377 z m -105.87055,18.715959 -3.259592,2.73518 0.511695,0.60729 3.304541,-2.77283 a 61.979783,61.979783 0 0 1 -0.556644,-0.56964 z m 101.46521,-8.876017 a 61.979783,61.979783 0 0 1 -0.44932,0.657127 l 3.73639,2.15735 0.39632,-0.68777 z m -93.916894,16.591697 -2.702523,3.22074 0.607423,0.50969 2.702523,-3.22075 a 61.979783,61.979783 0 0 1 -0.607423,-0.50968 z m 87.823014,-7.683 a 61.979783,61.979783 0 0 1 -0.5102,0.60746 l 3.22126,2.70248 0.50969,-0.60742 z m -78.96351,13.8372 -2.157346,3.73639 0.68725,0.39636 2.126708,-3.68339 a 61.979783,61.979783 0 0 1 -0.656612,-0.44936 z m 71.30779,-6.23811 a 61.979783,61.979783 0 0 1 -0.56865,0.55604 l 2.73401,3.25814 0.60747,-0.50964 z m -61.54247,10.7807 -1.503068,4.12942 0.746344,0.27137 1.487958,-4.08868 a 61.979783,61.979783 0 0 1 -0.731234,-0.31211 z m 52.713758,-4.61185 a 61.979783,61.979783 0 0 1 -0.665413,0.4343 l 2.175295,3.76766 0.68742,-0.39629 z m -42.325616,7.4151 -0.771802,4.37668 0.783006,0.13899 0.767225,-4.3519 a 61.979783,61.979783 0 0 1 -0.778429,-0.16377 z m 32.581087,-2.84996 a 61.979783,61.979783 0 0 1 -0.735166,0.29516 l 1.51127,4.15256 0.743975,-0.27155 z m -21.872612,3.83605 8e-6,4.46478 0.794705,-1e-5 2.44e-4,-4.45599 a 61.979783,61.979783 0 0 1 -0.794957,-0.009 z m 11.498011,-1.00594 a 61.979783,61.979783 0 0 1 -0.779811,0.14655 l 0.774058,4.38876 0.781046,-0.13836 z" />
    </g>
    <g
       id="g8"
       style="display:inline;fill:#ffffff"
       transform="matrix(7.4042798,0,0,7.4042798,10.481478,10.481479)"
       inkscape:label="directions">
      <path
         style="font-weight:500;font-size:12.7px;line-height:1.25;font-family:Roboto;-inkscape-font-specification:'Roboto Medium';text-align:center;letter-spacing:0px;word-spacing:0px;baseline-shift:baseline;text-anchor:middle;fill:#ffffff;stroke-width:0.264583"
         d="M 71.312956,17.733288 H 69.74406 l -4.024561,-6.40581 v 6.40581 H 64.150603 V 8.7043821 h 1.568896 l 4.036963,6.4306149 V 8.7043821 h 1.556494 z"
         id="text4"
         aria-label="N" />
      <path
         style="font-weight:500;font-size:12.7px;line-height:1.25;font-family:Roboto;-inkscape-font-specification:'Roboto Medium';text-align:center;letter-spacing:0px;word-spacing:0px;baseline-shift:baseline;text-anchor:middle;fill:#ffffff;stroke-width:0.264583"
         d="m 65.93654,119.95547 q 0,0.59531 0.42168,0.91777 0.415478,0.32246 1.506885,0.65112 1.091406,0.32866 1.736328,0.73174 1.234033,0.77515 1.234033,2.02158 0,1.09141 -0.886768,1.79834 -0.892968,0.70694 -2.313037,0.70694 -0.942578,0 -1.680517,-0.34727 -0.73794,-0.34727 -1.159619,-0.99219 -0.42168,-0.63872 -0.42168,-1.42007 h 1.562695 q 0,0.70694 0.446485,1.10381 0.440283,0.40308 1.265039,0.40308 0.768945,0 1.196826,-0.32866 0.421679,-0.32866 0.421679,-0.91778 0,-0.49609 -0.458886,-0.83095 -0.458887,-0.32867 -1.513086,-0.64493 -1.054199,-0.31005 -1.69292,-0.71313 -0.638721,-0.39687 -0.936377,-0.91777 -0.297656,-0.5147 -0.297656,-1.20923 0,-1.12862 0.868164,-1.79834 0.861963,-0.66353 2.344043,-0.66353 0.979785,0 1.804541,0.35967 0.818554,0.36587 1.277441,1.00459 0.452686,0.63872 0.452686,1.48828 h -1.568897 q 0,-0.76894 -0.508496,-1.19062 -0.508496,-0.42168 -1.457275,-0.42168 -0.818555,0 -1.227832,0.32866 -0.415479,0.33486 -0.415479,0.88057 z"
         id="text5"
         aria-label="S" />
      <path
         style="font-weight:500;font-size:12.7px;line-height:1.25;font-family:Roboto;-inkscape-font-specification:'Roboto Medium';text-align:center;letter-spacing:0px;word-spacing:0px;baseline-shift:baseline;text-anchor:middle;fill:#ffffff;stroke-width:0.264583"
         d="m 121.76414,70.345576 v -3.7083 h -2.77813 v 4.334619 h -1.25264 v -5.903516 h 9.02891 v 5.860108 h -1.26504 v -4.291211 h -2.49287 v 3.7083 z"
         id="text6"
         aria-label="E" />
      <path
         style="font-weight:500;font-size:12.7px;line-height:1.25;font-family:Roboto;-inkscape-font-specification:'Roboto Medium';text-align:center;letter-spacing:0px;word-spacing:0px;baseline-shift:baseline;text-anchor:middle;fill:#ffffff;stroke-width:0.264583"
         d="m 15.604215,65.328828 -6.79648,-1.389062 v -1.556494 l 9.0289,2.083594 v 1.500683 l -6.59184,1.717725 6.59184,1.754931 v 1.506885 l -9.0289,2.083594 V 71.47419 l 6.78408,-1.401465 -6.78408,-1.723926 v -1.314648 z"
         id="text7"
         aria-label="W" />
    </g>
    <g
       id="g16"
       style="display:inline"
       transform="matrix(7.4042798,0,0,7.4042798,10.481478,10.481479)"
       inkscape:label="degrees">
      <path
         style="font-size:12.7px;line-height:1.25;font-family:'Roboto Condensed';-inkscape-font-specification:'Roboto Condensed, ';text-align:center;letter-spacing:-0.529167px;word-spacing:0px;baseline-shift:baseline;text-anchor:middle;fill:#ffffff;stroke-width:0.264583"
         d="m 91.518585,-30.306319 h 0.700733 q 0.675927,0 1.041796,-0.415479 0.36587,-0.415478 0.36587,-1.134814 0,-1.5875 -1.227832,-1.5875 -0.589112,0 -0.923975,0.427881 -0.334863,0.42788 -0.334863,1.122412 h -1.091406 q 0,-1.085205 0.657324,-1.785938 0.663525,-0.706933 1.69292,-0.706933 1.066601,0 1.69292,0.669726 0.626318,0.663526 0.626318,1.885156 0,0.626319 -0.328662,1.172022 -0.322461,0.539502 -0.84336,0.79375 1.277442,0.471289 1.277442,2.114599 0,1.209229 -0.675928,1.928565 -0.669726,0.713135 -1.754932,0.713135 -1.072802,0 -1.736328,-0.675928 -0.657324,-0.682129 -0.657324,-1.829346 h 1.097608 q 0,0.719336 0.347265,1.147217 0.347266,0.42168 0.948779,0.42168 0.613916,0 0.973584,-0.415479 0.36587,-0.415478 0.36587,-1.265039 0,-1.64331 -1.556495,-1.64331 h -0.657324 z"
         id="text1"
         transform="rotate(30)"
         aria-label="3" />
      <path
         style="font-size:12.7px;line-height:1.25;font-family:'Roboto Condensed';-inkscape-font-specification:'Roboto Condensed, ';text-align:center;letter-spacing:-0.529167px;word-spacing:0px;baseline-shift:baseline;text-anchor:middle;fill:#ffffff;stroke-width:0.264583"
         d="m -92.757786,-74.662971 h -5.047754 v -0.824756 l 2.573487,-3.410645 q 0.58291,-0.787549 0.806152,-1.289844 0.229443,-0.508496 0.229443,-1.072802 0,-0.719336 -0.334863,-1.165821 -0.334863,-0.446484 -0.880566,-0.446484 -0.68833,0 -1.066602,0.47749 -0.37207,0.471289 -0.37207,1.364258 h -1.097608 q 0,-1.246435 0.682129,-2.015381 0.682129,-0.768945 1.854151,-0.768945 1.079003,0 1.699121,0.663525 0.620117,0.657325 0.620117,1.754932 0,1.339453 -1.395264,3.168799 l -2.009179,2.629297 h 3.739306 z m 3.960482,0 h -1.103809 v -7.646045 l -1.897559,0.84956 v -1.041797 l 2.827735,-1.234033 h 0.173633 z"
         id="text2"
         transform="rotate(-150)"
         aria-label="21" />
      <path
         style="font-size:12.7px;line-height:1.25;font-family:'Roboto Condensed';-inkscape-font-specification:'Roboto Condensed, ';text-align:center;letter-spacing:-0.529167px;word-spacing:0px;baseline-shift:baseline;text-anchor:middle;fill:#ffffff;stroke-width:0.264583"
         d="m 22.762788,-142.51857 h -1.103809 v -7.64604 l -1.897558,0.84956 v -1.0418 l 2.827734,-1.23403 h 0.173633 z m 7.519954,0 h -5.047754 v -0.82476 l 2.573486,-3.41064 q 0.582911,-0.78755 0.806153,-1.28984 0.229443,-0.5085 0.229443,-1.07281 0,-0.71933 -0.334863,-1.16582 -0.334863,-0.44648 -0.880567,-0.44648 -0.68833,0 -1.066601,0.47749 -0.37207,0.47129 -0.37207,1.36426 h -1.097608 q 0,-1.24644 0.682129,-2.01538 0.682129,-0.76895 1.85415,-0.76895 1.079004,0 1.699121,0.66353 0.620118,0.65732 0.620118,1.75493 0,1.33945 -1.395264,3.1688 l -2.00918,2.62929 h 3.739307 z"
         id="text3"
         transform="rotate(120)"
         aria-label="12" />
      <path
         style="font-size:12.7px;line-height:1.25;font-family:'Roboto Condensed';-inkscape-font-specification:'Roboto Condensed, ';text-align:center;letter-spacing:-0.529167px;word-spacing:0px;baseline-shift:baseline;text-anchor:middle;fill:#ffffff;stroke-width:0.264583"
         d="m -28.651836,37.549279 h 0.700733 q 0.675927,0 1.041797,-0.415478 0.365869,-0.415479 0.365869,-1.134815 0,-1.5875 -1.227832,-1.5875 -0.589112,0 -0.923975,0.427881 -0.334863,0.427881 -0.334863,1.122412 h -1.091406 q 0,-1.085205 0.657324,-1.785937 0.663525,-0.706934 1.69292,-0.706934 1.066601,0 1.69292,0.669727 0.626318,0.663525 0.626318,1.885156 0,0.626318 -0.328662,1.172021 -0.322461,0.539502 -0.843359,0.79375 1.277441,0.471289 1.277441,2.1146 0,1.209228 -0.675928,1.928564 -0.669726,0.713135 -1.754931,0.713135 -1.072803,0 -1.736329,-0.675928 -0.657324,-0.682129 -0.657324,-1.829345 h 1.097608 q 0,0.719336 0.347265,1.147216 0.347266,0.42168 0.94878,0.42168 0.613916,0 0.973584,-0.415478 0.365869,-0.415479 0.365869,-1.265039 0,-1.643311 -1.556494,-1.643311 h -0.657325 z m 9.163265,1.221631 q 0,1.996777 -0.58291,2.988965 -0.58291,0.985986 -1.829346,0.985986 -1.209228,0 -1.804541,-0.948779 -0.595312,-0.94878 -0.620117,-2.852539 V 37.39425 q 0,-1.978174 0.58291,-2.951758 0.589111,-0.973584 1.829346,-0.973584 1.221631,0 1.804541,0.923975 0.589111,0.923974 0.620117,2.796728 z m -1.097608,-1.568897 q 0,-1.43247 -0.316259,-2.108398 -0.31626,-0.682129 -1.010791,-0.682129 -0.675928,0 -0.992188,0.669727 -0.31626,0.663525 -0.328662,2.009179 v 1.860352 q 0,1.426269 0.328662,2.145605 0.328662,0.713135 1.00459,0.713135 0.669727,0 0.985986,-0.675928 0.31626,-0.675927 0.328662,-2.06499 z"
         id="text8"
         transform="rotate(-60)"
         aria-label="30" />
      <path
         style="font-size:12.7px;line-height:1.25;font-family:'Roboto Condensed';-inkscape-font-specification:'Roboto Condensed, ';text-align:center;letter-spacing:-0.529167px;word-spacing:0px;baseline-shift:baseline;text-anchor:middle;fill:#ffffff;stroke-width:0.264583"
         d="m 94.176025,-84.047146 v 0.973583 h -0.179834 q -1.097607,0.0248 -1.717724,0.744141 -0.620117,0.713135 -0.713135,2.151807 0.601514,-0.756543 1.537891,-0.756543 0.998388,0 1.581298,0.824756 0.589112,0.818554 0.589112,2.151806 0,1.420069 -0.651123,2.244824 -0.644922,0.824756 -1.736328,0.824756 -1.097608,0 -1.767334,-0.973584 -0.669727,-0.973584 -0.669727,-2.585888 v -0.440284 q 0,-1.860351 0.403076,-2.96416 0.403076,-1.103808 1.184424,-1.637109 0.787549,-0.539502 1.953369,-0.558105 z m -1.258838,4.067968 q -0.446484,0 -0.824755,0.341065 -0.378272,0.341064 -0.545703,0.868164 v 0.452685 q 0,1.097608 0.384472,1.792139 0.390674,0.68833 0.954981,0.68833 0.613916,0 0.961181,-0.564307 0.347266,-0.570507 0.347266,-1.500683 0,-0.917774 -0.347266,-1.494483 -0.347265,-0.58291 -0.930176,-0.58291 z"
         id="text12"
         transform="rotate(60)"
         aria-label="6" />
      <path
         style="font-size:12.7px;line-height:1.25;font-family:'Roboto Condensed';-inkscape-font-specification:'Roboto Condensed, ';text-align:center;letter-spacing:-0.529167px;word-spacing:0px;baseline-shift:baseline;text-anchor:middle;fill:#ffffff;stroke-width:0.264583"
         d="m -92.996769,-24.884699 h -5.047754 v -0.824756 l 2.573486,-3.410644 q 0.582911,-0.787549 0.806153,-1.289844 0.229443,-0.508496 0.229443,-1.072803 0,-0.719336 -0.334863,-1.16582 -0.334863,-0.446484 -0.880567,-0.446484 -0.68833,0 -1.066601,0.47749 -0.37207,0.471289 -0.37207,1.364258 h -1.097608 q 0,-1.246436 0.682129,-2.015381 0.682129,-0.768945 1.85415,-0.768945 1.079004,0 1.699122,0.663525 0.620117,0.657324 0.620117,1.754932 0,1.339453 -1.395264,3.168798 l -2.00918,2.629297 h 3.739307 z m 4.847249,-3.032373 h 1.00459 v 0.936377 h -1.00459 v 2.095996 h -1.097607 v -2.095996 h -3.410645 v -0.675928 l 3.354834,-6.256982 h 1.153418 z m -3.292822,0 h 2.195215 v -4.291211 z"
         id="text13"
         transform="rotate(-120)"
         aria-label="24" />
      <path
         style="font-size:12.7px;line-height:1.25;font-family:'Roboto Condensed';-inkscape-font-specification:'Roboto Condensed, ';text-align:center;letter-spacing:-0.529167px;word-spacing:0px;baseline-shift:baseline;text-anchor:middle;fill:#ffffff;stroke-width:0.264583"
         d="m -27.015488,-142.75755 h -1.103809 v -7.64605 l -1.897559,0.84956 v -1.04179 l 2.827735,-1.23404 h 0.173633 z m 2.918684,-4.52686 0.390674,-4.50205 h 3.925342 v 1.0604 h -3.001368 l -0.210839,2.46187 q 0.558105,-0.39068 1.203027,-0.39068 1.054199,0 1.655713,0.81856 0.601513,0.81855 0.601513,2.20141 0,1.40147 -0.657324,2.20142 -0.651123,0.79995 -1.792138,0.79995 -1.016993,0 -1.655713,-0.66353 -0.638721,-0.66352 -0.731739,-1.83554 h 1.029395 q 0.09302,0.77514 0.440283,1.17202 0.353467,0.39067 0.917774,0.39067 0.63872,0 0.998388,-0.5519 0.359668,-0.55811 0.359668,-1.50068 0,-0.88677 -0.390674,-1.44488 -0.384472,-0.5581 -1.041796,-0.5581 -0.545704,0 -0.874366,0.28525 l -0.291455,0.29146 z"
         id="text14"
         transform="rotate(150)"
         aria-label="15" />
      <path
         style="font-size:12.7px;line-height:1.25;font-family:'Roboto Condensed';-inkscape-font-specification:'Roboto Condensed, ';text-align:center;letter-spacing:-0.529167px;word-spacing:0px;baseline-shift:baseline;text-anchor:middle;fill:#ffffff;stroke-width:0.264583"
         d="m 21.126447,37.788255 h 0.700732 q 0.675928,0 1.041797,-0.415479 0.365869,-0.415478 0.365869,-1.134814 0,-1.5875 -1.227832,-1.5875 -0.589111,0 -0.923975,0.427881 -0.334863,0.42788 -0.334863,1.122412 h -1.091406 q 0,-1.085205 0.657324,-1.785938 0.663525,-0.706933 1.69292,-0.706933 1.066601,0 1.69292,0.669726 0.626318,0.663526 0.626318,1.885156 0,0.626319 -0.328662,1.172022 -0.322461,0.539502 -0.843359,0.79375 1.277441,0.471289 1.277441,2.114599 0,1.209229 -0.675928,1.928565 -0.669726,0.713135 -1.754931,0.713135 -1.072803,0 -1.736328,-0.675928 -0.657325,-0.682129 -0.657325,-1.829346 h 1.097608 q 0,0.719336 0.347265,1.147217 0.347266,0.42168 0.94878,0.42168 0.613916,0 0.973584,-0.415479 0.365869,-0.415478 0.365869,-1.265039 0,-1.64331 -1.556494,-1.64331 h -0.657324 z m 5.740217,0 h 0.700733 q 0.675927,0 1.041796,-0.415479 0.36587,-0.415478 0.36587,-1.134814 0,-1.5875 -1.227832,-1.5875 -0.589112,0 -0.923975,0.427881 -0.334863,0.42788 -0.334863,1.122412 h -1.091407 q 0,-1.085205 0.657325,-1.785938 0.663525,-0.706933 1.69292,-0.706933 1.066601,0 1.692919,0.669726 0.626319,0.663526 0.626319,1.885156 0,0.626319 -0.328662,1.172022 -0.322461,0.539502 -0.84336,0.79375 1.277442,0.471289 1.277442,2.114599 0,1.209229 -0.675928,1.928565 -0.669727,0.713135 -1.754932,0.713135 -1.072802,0 -1.736328,-0.675928 -0.657324,-0.682129 -0.657324,-1.829346 h 1.097608 q 0,0.719336 0.347265,1.147217 0.347266,0.42168 0.948779,0.42168 0.613916,0 0.973584,-0.415479 0.36587,-0.415478 0.36587,-1.265039 0,-1.64331 -1.556495,-1.64331 h -0.657324 z"
         id="text15"
         transform="rotate(-30)"
         aria-label="33" />
    </g>
  </g>
  <metadata
     id="metadata1">
    <rdf:RDF>
      <cc:Work
         rdf:about="">
        <dc:title>Instruments Icon</dc:title>
        <dc:creator>
          <cc:Agent>
            <dc:title>S.Victor(Xiang)</dc:title>
          </cc:Agent>
        </dc:creator>
        <cc:license
           rdf:resource="http://creativecommons.org/licenses/by-sa/4.0/" />
      </cc:Work>
      <cc:License
         rdf:about="http://creativecommons.org/licenses/by-sa/4.0/">
        <cc:permits
           rdf:resource="http://creativecommons.org/ns#Reproduction" />
        <cc:permits
           rdf:resource="http://creativecommons.org/ns#Distribution" />
        <cc:requires
           rdf:resource="http://creativecommons.org/ns#Notice" />
        <cc:requires
           rdf:resource="http://creativecommons.org/ns#Attribution" />
        <cc:permits
           rdf:resource="http://creativecommons.org/ns#DerivativeWorks" />
        <cc:requires
           rdf:resource="http://creativecommons.org/ns#ShareAlike" />
      </cc:License>
    </rdf:RDF>
  </metadata>
</svg>
